<svg width="33" height="27" viewBox="0 0 33 27" fill="none" xmlns="http://www.w3.org/2000/svg">
<path d="M0.627944 24.6323V5.31834C0.627944 5.19792 0.63798 5.08752 0.658052 4.98716C0.678123 4.88681 0.723284 4.77641 0.793535 4.65598C1.22507 3.9334 1.84729 3.27104 2.6602 2.66889C3.4731 2.05671 4.4265 1.56997 5.5204 1.20868C6.62434 0.847393 7.81358 0.666748 9.08813 0.666748C10.6638 0.666748 12.0838 0.952769 13.3483 1.52481C14.6229 2.08681 15.6164 2.81943 16.329 3.72265C17.0415 2.81943 18.03 2.08681 19.2945 1.52481C20.5691 0.952769 21.9892 0.666748 23.5547 0.666748C24.8393 0.666748 26.0286 0.847393 27.1225 1.20868C28.2164 1.56997 29.1698 2.05671 29.9827 2.66889C30.8056 3.27104 31.4278 3.9334 31.8493 4.65598C31.9196 4.77641 31.9648 4.88681 31.9848 4.98716C32.0049 5.08752 32.0149 5.19792 32.0149 5.31834V24.6323C32.0149 25.1541 31.8694 25.5254 31.5784 25.7462C31.2974 25.967 30.9662 26.0774 30.5848 26.0774C30.354 26.0774 30.1332 26.0222 29.9225 25.9118C29.7217 25.8115 29.501 25.681 29.2601 25.5204C28.4873 24.9584 27.6142 24.5118 26.6408 24.1806C25.6673 23.8595 24.6537 23.6989 23.5999 23.6989C22.5361 23.709 21.5024 23.9147 20.4988 24.3161C19.4953 24.7176 18.587 25.3097 17.7741 26.0925C17.4931 26.3534 17.2422 26.534 17.0214 26.6344C16.8006 26.7348 16.5698 26.7849 16.329 26.7849C16.0981 26.7849 15.8673 26.7348 15.6365 26.6344C15.4057 26.534 15.1548 26.3534 14.8838 26.0925C14.0809 25.3097 13.1727 24.7176 12.1591 24.3161C11.1455 23.9147 10.1068 23.709 9.04297 23.6989C7.99924 23.6989 6.98563 23.8595 6.00212 24.1806C5.02865 24.5118 4.15553 24.9584 3.38277 25.5204C3.14191 25.681 2.91611 25.8115 2.70536 25.9118C2.50464 26.0222 2.29389 26.0774 2.0731 26.0774C1.69174 26.0774 1.35554 25.967 1.0645 25.7462C0.773464 25.5254 0.627944 25.1541 0.627944 24.6323ZM2.72041 23.4882C3.46306 22.9262 4.39137 22.4746 5.50535 22.1333C6.61932 21.7921 7.81358 21.6215 9.08813 21.6215C9.91107 21.6215 10.7039 21.7169 11.4666 21.9075C12.2394 22.0982 12.9519 22.3541 13.6042 22.6753C14.2566 22.9964 14.8186 23.3527 15.2903 23.7441V5.70974C14.7584 4.80652 13.9354 4.08896 12.8215 3.55706C11.7175 3.01513 10.4731 2.74416 9.08813 2.74416C7.75337 2.74416 6.49889 3.01011 5.3247 3.54201C4.16055 4.06387 3.29245 4.75132 2.72041 5.60437V23.4882ZM17.3677 23.7441C17.8394 23.3527 18.3963 22.9964 19.0386 22.6753C19.691 22.3541 20.3985 22.0982 21.1612 21.9075C21.934 21.7169 22.7318 21.6215 23.5547 21.6215C24.8494 21.6215 26.0537 21.7921 27.1676 22.1333C28.2816 22.4746 29.2099 22.9262 29.9526 23.4882V5.60437C29.3705 4.75132 28.4924 4.06387 27.3182 3.54201C26.144 3.01011 24.8895 2.74416 23.5547 2.74416C22.1698 2.74416 20.9203 3.01513 19.8064 3.55706C18.7024 4.08896 17.8895 4.80652 17.3677 5.70974V23.7441Z" fill="black"/>
</svg>
