<svg width="28" height="20" viewBox="0 0 28 20" fill="none" xmlns="http://www.w3.org/2000/svg">
<path d="M8.93592 4.26639C8.7923 4.26639 8.67262 4.21453 8.57687 4.1108C8.48112 4.00708 8.43325 3.8834 8.43325 3.73978C8.43325 3.59616 8.48112 3.47647 8.57687 3.38073C8.67262 3.28498 8.7923 3.23711 8.93592 3.23711H18.5466C18.6902 3.23711 18.8099 3.28498 18.9056 3.38073C19.0014 3.47647 19.0493 3.59616 19.0493 3.73978C19.0493 3.8834 19.0014 4.00708 18.9056 4.1108C18.8099 4.21453 18.6902 4.26639 18.5466 4.26639H8.93592ZM7.38002 6.91142C7.22842 6.91142 7.10076 6.85956 6.99703 6.75583C6.89331 6.6521 6.84144 6.52843 6.84144 6.38481C6.84144 6.23321 6.89331 6.10554 6.99703 6.00182C7.10076 5.89011 7.22842 5.83426 7.38002 5.83426H20.1145C20.2581 5.83426 20.3778 5.89011 20.4735 6.00182C20.5772 6.10554 20.6291 6.23321 20.6291 6.38481C20.6291 6.52843 20.5772 6.6521 20.4735 6.75583C20.3778 6.85956 20.2581 6.91142 20.1145 6.91142H7.38002ZM3.90917 19.2629C2.75222 19.2629 1.88251 18.9756 1.30005 18.4011C0.725564 17.8266 0.438322 16.9729 0.438322 15.8399V9.22133C0.438322 8.90217 0.45428 8.63089 0.486195 8.40748C0.52609 8.17609 0.589922 7.96863 0.677691 7.78512C0.765459 7.59362 0.889133 7.39814 1.04871 7.19866L5.09405 2.15994C5.50896 1.64929 5.87998 1.24635 6.20712 0.951131C6.53425 0.655909 6.8973 0.448456 7.29624 0.328772C7.69519 0.201108 8.21782 0.137276 8.86411 0.137276H18.6304C19.2767 0.137276 19.7953 0.201108 20.1863 0.328772C20.5852 0.448456 20.9483 0.655909 21.2754 0.951131C21.6025 1.24635 21.9775 1.64929 22.4004 2.15994L26.4458 7.19866C26.5974 7.39814 26.7171 7.59362 26.8048 7.78512C26.9006 7.96863 26.9644 8.17609 26.9963 8.40748C27.0282 8.63089 27.0442 8.90217 27.0442 9.22133V15.8399C27.0442 16.9729 26.7569 17.8266 26.1825 18.4011C25.608 18.9756 24.7423 19.2629 23.5853 19.2629H3.90917ZM2.62855 8.56307H10.2405C10.5038 8.56307 10.7033 8.65084 10.8389 8.82637C10.9745 8.99393 11.0424 9.18543 11.0424 9.40086V9.4607C11.0424 9.9155 11.1541 10.3583 11.3775 10.7892C11.6009 11.2121 11.9161 11.5592 12.323 11.8305C12.7299 12.0938 13.2047 12.2254 13.7472 12.2254C14.2898 12.2254 14.7606 12.0938 15.1595 11.8305C15.5664 11.5592 15.8816 11.2121 16.105 10.7892C16.3284 10.3583 16.4401 9.9155 16.4401 9.4607V9.40086C16.4401 9.18543 16.508 8.99393 16.6436 8.82637C16.7792 8.65084 16.9867 8.56307 17.266 8.56307H24.8779C25.0455 8.56307 25.1452 8.50322 25.1771 8.38354C25.217 8.26386 25.1971 8.14816 25.1173 8.03645L20.7847 2.56687C20.5054 2.22378 20.2022 1.97643 19.8751 1.82483C19.548 1.67323 19.1769 1.59743 18.762 1.59743H8.73246C8.30957 1.59743 7.93456 1.67323 7.60742 1.82483C7.28029 1.97643 6.97709 2.22378 6.69782 2.56687L2.37721 8.03645C2.28944 8.14816 2.26551 8.26386 2.3054 8.38354C2.3453 8.50322 2.45301 8.56307 2.62855 8.56307ZM3.93311 17.6112H23.5614C24.1438 17.6112 24.5946 17.4556 24.9138 17.1444C25.233 16.8253 25.3925 16.3585 25.3925 15.7441V10.0591H18.02C17.9322 10.7693 17.6928 11.4036 17.3019 11.9621C16.9189 12.5127 16.4202 12.9515 15.8058 13.2786C15.1914 13.5978 14.5052 13.7574 13.7472 13.7574C12.9892 13.7574 12.303 13.5978 11.6887 13.2786C11.0743 12.9595 10.5716 12.5206 10.1806 11.9621C9.78967 11.4036 9.5503 10.7693 9.46253 10.0591H2.10194V15.7441C2.10194 16.3585 2.25753 16.8253 2.56871 17.1444C2.88786 17.4556 3.34267 17.6112 3.93311 17.6112Z" fill="white"/>
</svg>
