<svg width="26" height="22" viewBox="0 0 26 22" fill="none" xmlns="http://www.w3.org/2000/svg">
<path d="M0.43801 19.7487V4.39485C0.43801 4.29911 0.445988 4.21135 0.461944 4.13157C0.4779 4.05179 0.513802 3.96403 0.569649 3.86829C0.912707 3.29387 1.40735 2.76732 2.05358 2.28863C2.6998 1.80197 3.45772 1.41503 4.32734 1.12782C5.20493 0.840603 6.15033 0.696997 7.16355 0.696997C8.41612 0.696997 9.54502 0.924374 10.5503 1.37913C11.5635 1.8259 12.3533 2.4083 12.9198 3.12633C13.4862 2.4083 14.272 1.8259 15.2773 1.37913C16.2905 0.924374 17.4194 0.696997 18.664 0.696997C19.6852 0.696997 20.6306 0.840603 21.5002 1.12782C22.3698 1.41503 23.1277 1.80197 23.774 2.28863C24.4282 2.76732 24.9228 3.29387 25.2579 3.86829C25.3137 3.96403 25.3496 4.05179 25.3656 4.13157C25.3816 4.21135 25.3895 4.29911 25.3895 4.39485V19.7487C25.3895 20.1636 25.2739 20.4588 25.0425 20.6343C24.8191 20.8098 24.5558 20.8976 24.2527 20.8976C24.0692 20.8976 23.8936 20.8537 23.7261 20.7659C23.5665 20.6861 23.391 20.5824 23.1995 20.4548C22.5852 20.008 21.8911 19.653 21.1173 19.3897C20.3434 19.1344 19.5376 19.0068 18.6999 19.0068C17.8542 19.0147 17.0325 19.1783 16.2347 19.4974C15.4368 19.8165 14.7148 20.2872 14.0686 20.9095C13.8452 21.117 13.6458 21.2606 13.4702 21.3403C13.2947 21.4201 13.1112 21.46 12.9198 21.46C12.7363 21.46 12.5528 21.4201 12.3693 21.3403C12.1858 21.2606 11.9863 21.117 11.7709 20.9095C11.1327 20.2872 10.4106 19.8165 9.60485 19.4974C8.79906 19.1783 7.97333 19.0147 7.12765 19.0068C6.29793 19.0068 5.49214 19.1344 4.71029 19.3897C3.93641 19.653 3.24231 20.008 2.628 20.4548C2.43653 20.5824 2.25702 20.6861 2.08948 20.7659C1.92992 20.8537 1.76238 20.8976 1.58686 20.8976C1.28369 20.8976 1.01642 20.8098 0.785057 20.6343C0.553692 20.4588 0.43801 20.1636 0.43801 19.7487ZM2.10144 18.8392C2.69182 18.3924 3.4298 18.0334 4.31537 17.7622C5.20094 17.4909 6.15033 17.3553 7.16355 17.3553C7.81776 17.3553 8.44803 17.4311 9.05436 17.5827C9.66868 17.7342 10.2351 17.9377 10.7537 18.193C11.2723 18.4483 11.7191 18.7315 12.094 19.0427V4.706C11.6712 3.98797 11.017 3.41753 10.1314 2.99469C9.25382 2.56387 8.26453 2.34847 7.16355 2.34847C6.10247 2.34847 5.1052 2.55989 4.17176 2.98272C3.2463 3.39759 2.5562 3.94409 2.10144 4.62223V18.8392ZM13.7455 19.0427C14.1205 18.7315 14.5632 18.4483 15.0738 18.193C15.5924 17.9377 16.1549 17.7342 16.7612 17.5827C17.3755 17.4311 18.0098 17.3553 18.664 17.3553C19.6932 17.3553 20.6505 17.4909 21.5361 17.7622C22.4217 18.0334 23.1597 18.3924 23.75 18.8392V4.62223C23.2873 3.94409 22.5892 3.39759 21.6558 2.98272C20.7223 2.55989 19.7251 2.34847 18.664 2.34847C17.563 2.34847 16.5697 2.56387 15.6842 2.99469C14.8066 3.41753 14.1604 3.98797 13.7455 4.706V19.0427Z" fill="white"/>
</svg>
