<svg width="33" height="31" viewBox="0 0 33 31" fill="none" xmlns="http://www.w3.org/2000/svg">
<mask id="path-1-outside-1_475_108" maskUnits="userSpaceOnUse" x="-0.5" y="0" width="34" height="31" fill="black">
<rect fill="white" x="-0.5" width="34" height="31"/>
<path d="M16.5 29.2871C16.3496 29.2871 16.1777 29.2495 15.9844 29.1743C15.791 29.0991 15.6191 29.0078 15.4688 28.9004C12.6328 27.085 10.1675 25.1836 8.07275 23.1963C5.97803 21.1982 4.35596 19.1519 3.20654 17.0571C2.05713 14.9624 1.48242 12.8408 1.48242 10.6924C1.48242 9.36035 1.69189 8.14111 2.11084 7.03467C2.54053 5.92822 3.13672 4.9668 3.89941 4.15039C4.66211 3.33398 5.55371 2.70557 6.57422 2.26514C7.59473 1.82471 8.70117 1.60449 9.89355 1.60449C11.3545 1.60449 12.6543 1.98584 13.793 2.74854C14.9316 3.50049 15.834 4.49951 16.5 5.74561C17.1768 4.48877 18.0791 3.48438 19.207 2.73242C20.335 1.98047 21.6348 1.60449 23.1064 1.60449C24.2988 1.60449 25.3999 1.82471 26.4097 2.26514C27.4302 2.70557 28.3218 3.33398 29.0845 4.15039C29.8579 4.9668 30.4541 5.92822 30.873 7.03467C31.3027 8.14111 31.5176 9.36035 31.5176 10.6924C31.5176 12.8408 30.9429 14.9624 29.7935 17.0571C28.644 19.1519 27.022 21.1982 24.9272 23.1963C22.8325 25.1836 20.3672 27.085 17.5313 28.9004C17.3809 29.0078 17.2036 29.0991 16.9995 29.1743C16.8062 29.2495 16.6396 29.2871 16.5 29.2871Z"/>
</mask>
<path d="M16.5 29.2871C16.3496 29.2871 16.1777 29.2495 15.9844 29.1743C15.791 29.0991 15.6191 29.0078 15.4688 28.9004C12.6328 27.085 10.1675 25.1836 8.07275 23.1963C5.97803 21.1982 4.35596 19.1519 3.20654 17.0571C2.05713 14.9624 1.48242 12.8408 1.48242 10.6924C1.48242 9.36035 1.69189 8.14111 2.11084 7.03467C2.54053 5.92822 3.13672 4.9668 3.89941 4.15039C4.66211 3.33398 5.55371 2.70557 6.57422 2.26514C7.59473 1.82471 8.70117 1.60449 9.89355 1.60449C11.3545 1.60449 12.6543 1.98584 13.793 2.74854C14.9316 3.50049 15.834 4.49951 16.5 5.74561C17.1768 4.48877 18.0791 3.48438 19.207 2.73242C20.335 1.98047 21.6348 1.60449 23.1064 1.60449C24.2988 1.60449 25.3999 1.82471 26.4097 2.26514C27.4302 2.70557 28.3218 3.33398 29.0845 4.15039C29.8579 4.9668 30.4541 5.92822 30.873 7.03467C31.3027 8.14111 31.5176 9.36035 31.5176 10.6924C31.5176 12.8408 30.9429 14.9624 29.7935 17.0571C28.644 19.1519 27.022 21.1982 24.9272 23.1963C22.8325 25.1836 20.3672 27.085 17.5313 28.9004C17.3809 29.0078 17.2036 29.0991 16.9995 29.1743C16.8062 29.2495 16.6396 29.2871 16.5 29.2871Z" fill="#FF4848"/>
<path d="M15.4688 28.9004L16.05 28.0867L16.0293 28.0719L16.0079 28.0582L15.4688 28.9004ZM8.07275 23.1963L7.38254 23.9199L7.38449 23.9218L8.07275 23.1963ZM2.11084 7.03467L1.17863 6.67265L1.17563 6.68056L2.11084 7.03467ZM13.793 2.74854L13.2364 3.5794L13.2419 3.583L13.793 2.74854ZM16.5 5.74561L15.6181 6.21698L16.4967 7.86093L17.3805 6.21971L16.5 5.74561ZM26.4097 2.26514L26.0099 3.18175L26.0134 3.18328L26.4097 2.26514ZM29.0845 4.15039L28.3537 4.83307L28.3585 4.83814L29.0845 4.15039ZM30.873 7.03467L29.9378 7.38879L29.9409 7.39668L30.873 7.03467ZM24.9272 23.1963L25.6155 23.9218L25.6175 23.9199L24.9272 23.1963ZM17.5313 28.9004L16.9921 28.0582L16.9707 28.0719L16.95 28.0867L17.5313 28.9004ZM16.9995 29.1743L16.6538 28.236L16.6454 28.2391L16.6371 28.2423L16.9995 29.1743ZM16.5 29.2871V28.2871C16.5076 28.2871 16.4993 28.288 16.472 28.282C16.4448 28.2761 16.4035 28.2643 16.3468 28.2423L15.9844 29.1743L15.6219 30.1063C15.89 30.2106 16.1883 30.2871 16.5 30.2871V29.2871ZM15.9844 29.1743L16.3468 28.2423C16.2217 28.1937 16.125 28.1402 16.05 28.0867L15.4688 28.9004L14.8875 29.7141C15.1133 29.8754 15.3603 30.0046 15.6219 30.1063L15.9844 29.1743ZM15.4688 28.9004L16.0079 28.0582C13.2167 26.2714 10.803 24.4081 8.76101 22.4708L8.07275 23.1963L7.38449 23.9218C9.53194 25.9591 12.0489 27.8985 14.9296 29.7426L15.4688 28.9004ZM8.07275 23.1963L8.76296 22.4727C6.72732 20.531 5.17415 18.5642 4.08323 16.5761L3.20654 17.0571L2.32985 17.5382C3.53777 19.7395 5.22873 21.8655 7.38254 23.9199L8.07275 23.1963ZM3.20654 17.0571L4.08323 16.5761C3.00547 14.6119 2.48242 12.6544 2.48242 10.6924H1.48242H0.482422C0.482422 13.0272 1.10879 15.3129 2.32985 17.5382L3.20654 17.0571ZM1.48242 10.6924H2.48242C2.48242 9.46621 2.67499 8.36875 3.04604 7.38877L2.11084 7.03467L1.17563 6.68056C0.708802 7.91348 0.482422 9.25449 0.482422 10.6924H1.48242ZM2.11084 7.03467L3.04301 7.39668C3.4295 6.40147 3.95974 5.55068 4.63015 4.83305L3.89941 4.15039L3.16868 3.46773C2.3137 4.38292 1.65155 5.45497 1.17867 6.67266L2.11084 7.03467ZM3.89941 4.15039L4.63015 4.83305C5.29927 4.11681 6.07716 3.56881 6.97047 3.18328L6.57422 2.26514L6.17797 1.34699C5.03026 1.84232 4.02495 2.55116 3.16868 3.46773L3.89941 4.15039ZM6.57422 2.26514L6.97047 3.18328C7.85694 2.8007 8.82741 2.60449 9.89355 2.60449V1.60449V0.604492C8.57494 0.604492 7.33251 0.848719 6.17797 1.34699L6.57422 2.26514ZM9.89355 1.60449V2.60449C11.1701 2.60449 12.2735 2.93437 13.2365 3.57938L13.793 2.74854L14.3495 1.91769C13.0351 1.03731 11.5389 0.604492 9.89355 0.604492V1.60449ZM13.793 2.74854L13.2419 3.583C14.2368 4.24 15.0276 5.11215 15.6181 6.21698L16.5 5.74561L17.3819 5.27423C16.6404 3.88688 15.6265 2.76097 14.344 1.91407L13.793 2.74854ZM16.5 5.74561L17.3805 6.21971C17.9838 5.09917 18.7773 4.22074 19.7617 3.56447L19.207 2.73242L18.6523 1.90037C17.3809 2.74801 16.3697 3.87837 15.6195 5.27151L16.5 5.74561ZM19.207 2.73242L19.7617 3.56447C20.7113 2.93144 21.8145 2.60449 23.1064 2.60449V1.60449V0.604492C21.455 0.604492 19.9586 1.0295 18.6523 1.90037L19.207 2.73242ZM23.1064 1.60449V2.60449C24.1727 2.60449 25.1363 2.80072 26.0099 3.18174L26.4097 2.26514L26.8095 1.34853C25.6635 0.848693 24.425 0.604492 23.1064 0.604492V1.60449ZM26.4097 2.26514L26.0134 3.18328C26.9067 3.56881 27.6846 4.11681 28.3537 4.83305L29.0845 4.15039L29.8152 3.46773C28.9589 2.55116 27.9536 1.84232 26.8059 1.34699L26.4097 2.26514ZM29.0845 4.15039L28.3585 4.83814C29.0361 5.55334 29.5634 6.39976 29.9378 7.38877L30.873 7.03467L31.8083 6.68056C31.3448 5.45669 30.6797 4.38026 29.8104 3.46265L29.0845 4.15039ZM30.873 7.03467L29.9409 7.39668C30.3206 8.37444 30.5176 9.46912 30.5176 10.6924H31.5176H32.5176C32.5176 9.25158 32.2849 7.90779 31.8052 6.67266L30.873 7.03467ZM31.5176 10.6924H30.5176C30.5176 12.6544 29.9945 14.6119 28.9168 16.5761L29.7935 17.0571L30.6701 17.5382C31.8912 15.3129 32.5176 13.0272 32.5176 10.6924H31.5176ZM29.7935 17.0571L28.9168 16.5761C27.8259 18.5642 26.2727 20.531 24.237 22.4727L24.9272 23.1963L25.6175 23.9199C27.7713 21.8655 29.4622 19.7395 30.6701 17.5382L29.7935 17.0571ZM24.9272 23.1963L24.239 22.4708C22.197 24.4081 19.7833 26.2714 16.9921 28.0582L17.5313 28.9004L18.0704 29.7426C20.9511 27.8985 23.4681 25.9591 25.6155 23.9218L24.9272 23.1963ZM17.5313 28.9004L16.95 28.0867C16.8837 28.134 16.7885 28.1863 16.6538 28.236L16.9995 29.1743L17.3452 30.1127C17.6187 30.0119 17.878 29.8816 18.1125 29.7141L17.5313 28.9004ZM16.9995 29.1743L16.6371 28.2423C16.5772 28.2656 16.5352 28.2776 16.5094 28.2835C16.4831 28.2894 16.4815 28.2871 16.5 28.2871V29.2871V30.2871C16.8085 30.2871 17.1039 30.2067 17.362 30.1063L16.9995 29.1743Z" fill="white" fill-opacity="0.4" mask="url(#path-1-outside-1_475_108)"/>
</svg>
