<svg width="45" height="46" viewBox="0 0 45 46" fill="none" xmlns="http://www.w3.org/2000/svg">
<path d="M32 5.6875H29C27.3431 5.6875 26 7.49968 26 9.73512V35.6399C26 37.8753 27.3431 39.6875 29 39.6875H32C33.6569 39.6875 35 37.8753 35 35.6399V9.73512C35 7.49968 33.6569 5.6875 32 5.6875Z" fill="white"/>
<path d="M15 5.6875H12C10.3431 5.6875 9 7.44638 9 9.61607V34.7589C9 36.9286 10.3431 38.6875 12 38.6875H15C16.6569 38.6875 18 36.9286 18 34.7589V9.61607C18 7.44638 16.6569 5.6875 15 5.6875Z" fill="white"/>
</svg>
