<svg width="37" height="45" viewBox="0 0 37 45" fill="none" xmlns="http://www.w3.org/2000/svg">
<path d="M4.354 22.6606C4.354 22.2873 4.49251 21.9681 4.76953 21.7031C5.04655 21.4261 5.37174 21.2876 5.74512 21.2876H16.9644V10.0503C16.9644 9.68896 17.0968 9.36979 17.3618 9.09277C17.6388 8.81576 17.9701 8.67725 18.3555 8.67725C18.7288 8.67725 19.048 8.81576 19.313 9.09277C19.578 9.36979 19.7104 9.68896 19.7104 10.0503V21.2876H30.9658C31.3392 21.2876 31.6584 21.4261 31.9233 21.7031C32.2004 21.9681 32.3389 22.2873 32.3389 22.6606C32.3389 23.0461 32.2004 23.3773 31.9233 23.6543C31.6584 23.9193 31.3392 24.0518 30.9658 24.0518H19.7104V35.271C19.7104 35.6444 19.578 35.9635 19.313 36.2285C19.048 36.5055 18.7288 36.644 18.3555 36.644C17.9701 36.644 17.6388 36.5055 17.3618 36.2285C17.0968 35.9635 16.9644 35.6444 16.9644 35.271V24.0518H5.74512C5.37174 24.0518 5.04655 23.9193 4.76953 23.6543C4.49251 23.3773 4.354 23.0461 4.354 22.6606Z" fill="black"/>
</svg>
