<svg width="32" height="32" viewBox="0 0 32 32" fill="none" xmlns="http://www.w3.org/2000/svg">
<path d="M16.0645 29.1914C15.8838 29.1914 15.7032 29.1864 15.5225 29.1763C15.3519 29.1663 15.1763 29.1563 14.9956 29.1462L14.243 30.5613C14.1526 30.7419 14.0322 30.8674 13.8817 30.9376C13.7311 31.0179 13.5605 31.043 13.3698 31.0129C13.1691 30.9727 13.0136 30.8925 12.9032 30.772C12.7928 30.6516 12.7275 30.491 12.7075 30.2903L12.4666 28.7247C11.7541 28.514 11.0917 28.2631 10.4795 27.972L9.27523 29.0559C9.12469 29.1964 8.96914 29.2717 8.80856 29.2817C8.64799 29.3018 8.47738 29.2667 8.29674 29.1763C8.12613 29.0659 8.01072 28.9355 7.9505 28.7849C7.89029 28.6344 7.88025 28.4638 7.9204 28.2731L8.25158 26.7075C7.96054 26.4968 7.67954 26.276 7.40857 26.0452C7.1376 25.8143 6.87165 25.5735 6.61072 25.3226L5.12041 25.9247C4.74908 26.0753 4.43295 26 4.17202 25.6989C4.05159 25.5484 3.98134 25.3928 3.96127 25.2323C3.95123 25.0617 4.00643 24.891 4.12686 24.7204L4.96987 23.3656C4.76915 23.0746 4.57847 22.7785 4.39783 22.4774C4.21718 22.1663 4.05159 21.8502 3.90105 21.529L2.30536 21.5592C2.10465 21.5692 1.93404 21.5341 1.79354 21.4538C1.66307 21.3635 1.55769 21.223 1.47741 21.0323C1.41719 20.8516 1.40716 20.681 1.4473 20.5204C1.49748 20.3599 1.60285 20.2194 1.76343 20.0989L3.02794 19.1054C2.93762 18.7642 2.86235 18.423 2.80213 18.0817C2.74192 17.7305 2.69676 17.3692 2.66665 16.9979L1.13117 16.5162C0.739775 16.3857 0.544077 16.1197 0.544077 15.7183C0.544077 15.3169 0.739775 15.056 1.13117 14.9355L2.66665 14.4538C2.69676 14.0825 2.74192 13.7262 2.80213 13.385C2.86235 13.0337 2.93762 12.6825 3.02794 12.3312L1.76343 11.3527C1.43225 11.1018 1.34192 10.7907 1.49246 10.4194C1.56271 10.2287 1.66307 10.0882 1.79354 9.99791C1.93404 9.89755 2.10465 9.85239 2.30536 9.86242L3.90105 9.93769C4.05159 9.61654 4.21718 9.30042 4.39783 8.98931C4.57847 8.6782 4.76915 8.37712 4.96987 8.08608L4.11181 6.73125C3.89102 6.38 3.91109 6.05383 4.17202 5.75276C4.44299 5.45168 4.76413 5.37642 5.13546 5.52695L6.61072 6.11405C6.87165 5.87319 7.13258 5.64236 7.39352 5.42158C7.66448 5.19075 7.9505 4.96997 8.25158 4.75921L7.9204 3.17857C7.88025 2.98789 7.89029 2.81729 7.9505 2.66675C8.01072 2.50618 8.12613 2.37571 8.29674 2.27535C8.47738 2.19507 8.64799 2.15994 8.80856 2.16998C8.96914 2.18001 9.12469 2.25528 9.27523 2.39578L10.4645 3.47965C10.7756 3.32911 11.0967 3.19363 11.4279 3.0732C11.7691 2.94273 12.1154 2.82732 12.4666 2.72696L12.7075 1.14632C12.7275 0.955643 12.7928 0.800088 12.9032 0.679658C13.0136 0.549193 13.1691 0.468906 13.3698 0.438799C13.5605 0.408691 13.7311 0.433781 13.8817 0.514067C14.0322 0.584318 14.1526 0.709766 14.243 0.89041L14.9956 2.29041C15.1763 2.28037 15.3519 2.27033 15.5225 2.2603C15.7032 2.25026 15.8838 2.24524 16.0645 2.24524C16.2351 2.24524 16.4107 2.25026 16.5913 2.2603C16.772 2.27033 16.9526 2.28037 17.1333 2.29041L17.8709 0.875357C17.9713 0.704748 18.0917 0.5793 18.2322 0.499014C18.3827 0.418727 18.5584 0.398656 18.7591 0.438799C18.9497 0.478942 19.1003 0.559229 19.2107 0.679658C19.3211 0.790052 19.3913 0.945607 19.4214 1.14632L19.6472 2.72696C19.9985 2.82732 20.3397 2.93771 20.6709 3.05814C21.0121 3.17857 21.3383 3.31908 21.6494 3.47965L22.8537 2.39578C22.9942 2.26532 23.1447 2.19005 23.3053 2.16998C23.4759 2.1499 23.6465 2.18503 23.8171 2.27535C23.9877 2.38575 24.1031 2.51621 24.1633 2.66675C24.2336 2.81729 24.2487 2.98789 24.2085 3.17857L23.8623 4.74416C24.1533 4.94488 24.4343 5.16065 24.7053 5.39147C24.9863 5.62229 25.2522 5.86315 25.5031 6.11405L26.9934 5.52695C27.3648 5.37642 27.6859 5.45168 27.9569 5.75276C28.0773 5.9033 28.1425 6.06387 28.1526 6.23448C28.1626 6.39505 28.1124 6.56064 28.002 6.73125L27.144 8.07103C27.3547 8.3721 27.5504 8.6782 27.7311 8.98931C27.9117 9.29038 28.0773 9.60149 28.2279 9.92264L29.8235 9.87748C30.0142 9.87748 30.1798 9.91762 30.3203 9.99791C30.4608 10.0782 30.5712 10.2187 30.6515 10.4194C30.7117 10.6001 30.7167 10.7707 30.6666 10.9312C30.6264 11.0918 30.5261 11.2323 30.3655 11.3527L29.101 12.3312C29.1913 12.6724 29.2666 13.0187 29.3268 13.3699C29.387 13.7212 29.4321 14.0825 29.4623 14.4538L30.9977 14.9355C31.3791 15.056 31.5698 15.3169 31.5698 15.7183C31.5698 16.1197 31.3791 16.3857 30.9977 16.5162L29.4623 16.9979C29.4321 17.3692 29.387 17.7305 29.3268 18.0817C29.2666 18.423 29.1913 18.7642 29.101 19.1054L30.3655 20.0989C30.5361 20.2093 30.6415 20.3448 30.6816 20.5054C30.7318 20.666 30.7167 20.8366 30.6364 21.0172C30.506 21.3986 30.235 21.5842 29.8235 21.5742L28.2279 21.514C28.0773 21.8351 27.9117 22.1513 27.7311 22.4624C27.5504 22.7635 27.3547 23.0595 27.144 23.3505L28.002 24.7204C28.1124 24.891 28.1626 25.0566 28.1526 25.2172C28.1526 25.3778 28.0874 25.5384 27.9569 25.6989C27.8264 25.8394 27.6809 25.9348 27.5203 25.9849C27.3598 26.0251 27.1841 26.005 26.9934 25.9247L25.5031 25.3376C25.2522 25.5785 24.9913 25.8143 24.7203 26.0452C24.4494 26.276 24.1633 26.4918 23.8623 26.6925L24.2085 28.2731C24.2487 28.4638 24.2386 28.6344 24.1784 28.7849C24.1182 28.9355 24.0028 29.0559 23.8322 29.1462C23.6515 29.2466 23.4759 29.2867 23.3053 29.2667C23.1447 29.2566 22.9892 29.1864 22.8386 29.0559L21.6494 27.972C21.3383 28.1226 21.0171 28.2581 20.6859 28.3785C20.3548 28.4989 20.0135 28.6143 19.6623 28.7247L19.4214 30.3054C19.3913 30.496 19.3211 30.6516 19.2107 30.772C19.1003 30.9025 18.9497 30.9828 18.7591 31.0129C18.5584 31.033 18.3827 31.0079 18.2322 30.9376C18.0917 30.8674 17.9713 30.7419 17.8709 30.5613L17.1333 29.1462C16.9526 29.1563 16.772 29.1663 16.5913 29.1763C16.4107 29.1864 16.2351 29.1914 16.0645 29.1914ZM16.0645 27.0387C17.63 27.0387 19.0953 26.7477 20.4601 26.1656C21.835 25.5835 23.0393 24.7756 24.073 23.7419C25.1067 22.6982 25.9146 21.4939 26.4967 20.1291C27.0888 18.7541 27.3848 17.2839 27.3848 15.7183C27.3848 14.1527 27.0888 12.6875 26.4967 11.3226C25.9146 9.95776 25.1067 8.75848 24.073 7.72479C23.0393 6.68107 21.835 5.86817 20.4601 5.28609C19.0953 4.69398 17.63 4.39792 16.0645 4.39792C14.4989 4.39792 13.0286 4.69398 11.6537 5.28609C10.2888 5.86817 9.08455 6.68107 8.04083 7.72479C7.00714 8.75848 6.19424 9.95776 5.60212 11.3226C5.02005 12.6875 4.72901 14.1527 4.72901 15.7183C4.72901 17.2839 5.02005 18.7541 5.60212 20.1291C6.19424 21.4939 7.00714 22.6982 8.04083 23.7419C9.08455 24.7756 10.2888 25.5835 11.6537 26.1656C13.0286 26.7477 14.4989 27.0387 16.0645 27.0387ZM13.701 13.5656L8.85373 5.28609L10.4645 4.39792L15.2365 12.5871L13.701 13.5656ZM19.1505 16.5914V14.8H28.6795V16.5914H19.1505ZM15.2817 18.8796L10.329 27.0688L8.74835 26.1204L13.7612 17.9011L15.2817 18.8796ZM16.0645 19.3312C15.4121 19.3312 14.81 19.1706 14.258 18.8495C13.706 18.5183 13.2695 18.0817 12.9483 17.5398C12.6272 16.9878 12.4666 16.3807 12.4666 15.7183C12.4666 15.056 12.6272 14.4538 12.9483 13.9119C13.2695 13.3599 13.706 12.9233 14.258 12.6022C14.81 12.2811 15.4121 12.1205 16.0645 12.1205C16.7369 12.1205 17.344 12.2811 17.886 12.6022C18.4279 12.9233 18.8594 13.3599 19.1806 13.9119C19.5118 14.4538 19.6773 15.056 19.6773 15.7183C19.6773 16.3807 19.5118 16.9878 19.1806 17.5398C18.8594 18.0817 18.4279 18.5183 17.886 18.8495C17.344 19.1706 16.7369 19.3312 16.0645 19.3312ZM16.0645 17.3893C16.5261 17.3893 16.9175 17.2287 17.2386 16.9076C17.5698 16.5764 17.7354 16.18 17.7354 15.7183C17.7354 15.2667 17.5698 14.8803 17.2386 14.5592C16.9175 14.228 16.5261 14.0624 16.0645 14.0624C15.6128 14.0624 15.2265 14.228 14.9053 14.5592C14.5842 14.8803 14.4236 15.2667 14.4236 15.7183C14.4236 16.18 14.5842 16.5764 14.9053 16.9076C15.2265 17.2287 15.6128 17.3893 16.0645 17.3893Z" fill="black"/>
</svg>
