<svg width="26" height="25" viewBox="0 0 26 25" fill="none" xmlns="http://www.w3.org/2000/svg">
<path d="M12.9145 23.4809C12.7709 23.4809 12.6273 23.4769 12.4837 23.4689C12.3481 23.4609 12.2085 23.453 12.0648 23.445L11.4665 24.5699C11.3947 24.7135 11.2989 24.8132 11.1793 24.8691C11.0596 24.9329 10.924 24.9528 10.7724 24.9289C10.6128 24.897 10.4892 24.8332 10.4014 24.7374C10.3137 24.6417 10.2618 24.5141 10.2458 24.3545L10.0544 23.1099C9.48792 22.9424 8.96136 22.7429 8.4747 22.5115L7.51733 23.3732C7.39765 23.4849 7.27399 23.5447 7.14634 23.5527C7.01869 23.5686 6.88307 23.5407 6.73946 23.4689C6.60383 23.3812 6.51209 23.2774 6.46422 23.1578C6.41635 23.0381 6.40837 22.9025 6.44028 22.7509L6.70356 21.5063C6.47219 21.3388 6.24881 21.1632 6.0334 20.9797C5.81799 20.7963 5.60657 20.6048 5.39914 20.4053L4.21439 20.884C3.9192 21.0037 3.66789 20.9438 3.46046 20.7045C3.36472 20.5848 3.30888 20.4612 3.29292 20.3335C3.28494 20.1979 3.32882 20.0623 3.42456 19.9266L4.09472 18.8496C3.93516 18.6182 3.78357 18.3829 3.63997 18.1435C3.49636 17.8962 3.36472 17.6449 3.24505 17.3896L1.97653 17.4135C1.81697 17.4215 1.68134 17.3936 1.56965 17.3298C1.46593 17.258 1.38216 17.1463 1.31834 16.9947C1.27047 16.8511 1.26249 16.7155 1.2944 16.5878C1.33429 16.4602 1.41806 16.3485 1.54571 16.2527L2.55096 15.4629C2.47915 15.1916 2.41932 14.9204 2.37145 14.6491C2.32358 14.3699 2.28768 14.0827 2.26374 13.7875L1.04309 13.4045C0.731947 13.3008 0.576374 13.0894 0.576374 12.7703C0.576374 12.4512 0.731947 12.2437 1.04309 12.148L2.26374 11.765C2.28768 11.4698 2.32358 11.1866 2.37145 10.9154C2.41932 10.6361 2.47915 10.3569 2.55096 10.0777L1.54571 9.2998C1.28244 9.10035 1.21063 8.85303 1.33031 8.55784C1.38615 8.40625 1.46593 8.29456 1.56965 8.22276C1.68134 8.14298 1.81697 8.10708 1.97653 8.11505L3.24505 8.17489C3.36472 7.91959 3.49636 7.66828 3.63997 7.42096C3.78357 7.17364 3.93516 6.93429 4.09472 6.70293L3.41259 5.62588C3.23707 5.34665 3.25303 5.08736 3.46046 4.84802C3.67587 4.60868 3.93117 4.54884 4.22636 4.66851L5.39914 5.13523C5.60657 4.94376 5.814 4.76026 6.02143 4.58474C6.23684 4.40125 6.46422 4.22573 6.70356 4.05819L6.44028 2.80163C6.40837 2.65005 6.41635 2.51442 6.46422 2.39475C6.51209 2.2671 6.60383 2.16339 6.73946 2.08361C6.88307 2.01978 7.01869 1.99186 7.14634 1.99984C7.27399 2.00781 7.39765 2.06765 7.51733 2.17934L8.46273 3.04098C8.71005 2.92131 8.96535 2.8136 9.22863 2.71786C9.49989 2.61415 9.77513 2.5224 10.0544 2.44262L10.2458 1.18607C10.2618 1.03448 10.3137 0.910824 10.4014 0.815086C10.4892 0.711371 10.6128 0.647546 10.7724 0.623612C10.924 0.599678 11.0596 0.619623 11.1793 0.683448C11.2989 0.739294 11.3947 0.839021 11.4665 0.982627L12.0648 2.09557C12.2085 2.08759 12.3481 2.07962 12.4837 2.07164C12.6273 2.06366 12.7709 2.05967 12.9145 2.05967C13.0501 2.05967 13.1898 2.06366 13.3334 2.07164C13.477 2.07962 13.6206 2.08759 13.7642 2.09557L14.3506 0.970659C14.4304 0.835032 14.5261 0.735305 14.6378 0.671481C14.7575 0.607656 14.8971 0.591699 15.0566 0.623612C15.2082 0.655524 15.3279 0.719349 15.4157 0.815086C15.5034 0.902846 15.5593 1.02651 15.5832 1.18607L15.7627 2.44262C16.0419 2.5224 16.3132 2.61016 16.5765 2.7059C16.8477 2.80163 17.107 2.91333 17.3543 3.04098L18.3117 2.17934C18.4234 2.07563 18.5431 2.01579 18.6707 1.99984C18.8063 1.98388 18.942 2.0118 19.0776 2.08361C19.2132 2.17136 19.305 2.27508 19.3528 2.39475C19.4087 2.51442 19.4207 2.65005 19.3887 2.80163L19.1135 4.04622C19.3449 4.20578 19.5683 4.37731 19.7837 4.56081C20.0071 4.7443 20.2185 4.93578 20.4179 5.13523L21.6027 4.66851C21.8979 4.54884 22.1532 4.60868 22.3686 4.84802C22.4643 4.96769 22.5162 5.09534 22.5241 5.23097C22.5321 5.35862 22.4922 5.49026 22.4045 5.62588L21.7223 6.69096C21.8899 6.9303 22.0455 7.17364 22.1891 7.42096C22.3327 7.6603 22.4643 7.90762 22.584 8.16292L23.8525 8.12702C24.0041 8.12702 24.1357 8.15893 24.2474 8.22276C24.3591 8.28658 24.4469 8.39828 24.5107 8.55784C24.5586 8.70144 24.5625 8.83707 24.5227 8.96472C24.4907 9.09237 24.411 9.20406 24.2833 9.2998L23.2781 10.0777C23.3499 10.3489 23.4097 10.6242 23.4576 10.9034C23.5055 11.1826 23.5414 11.4698 23.5653 11.765L24.7859 12.148C25.0891 12.2437 25.2407 12.4512 25.2407 12.7703C25.2407 13.0894 25.0891 13.3008 24.7859 13.4045L23.5653 13.7875C23.5414 14.0827 23.5055 14.3699 23.4576 14.6491C23.4097 14.9204 23.3499 15.1916 23.2781 15.4629L24.2833 16.2527C24.4189 16.3405 24.5027 16.4482 24.5346 16.5758C24.5745 16.7035 24.5625 16.8391 24.4987 16.9827C24.395 17.2859 24.1796 17.4335 23.8525 17.4255L22.584 17.3776C22.4643 17.6329 22.3327 17.8842 22.1891 18.1316C22.0455 18.3709 21.8899 18.6063 21.7223 18.8376L22.4045 19.9266C22.4922 20.0623 22.5321 20.1939 22.5241 20.3216C22.5241 20.4492 22.4723 20.5769 22.3686 20.7045C22.2649 20.8162 22.1492 20.892 22.0215 20.9319C21.8939 20.9638 21.7543 20.9478 21.6027 20.884L20.4179 20.4173C20.2185 20.6088 20.011 20.7963 19.7956 20.9797C19.5802 21.1632 19.3528 21.3348 19.1135 21.4943L19.3887 22.7509C19.4207 22.9025 19.4127 23.0381 19.3648 23.1578C19.3169 23.2774 19.2252 23.3732 19.0896 23.445C18.946 23.5248 18.8063 23.5567 18.6707 23.5407C18.5431 23.5327 18.4194 23.4769 18.2997 23.3732L17.3543 22.5115C17.107 22.6312 16.8517 22.7389 16.5884 22.8347C16.3252 22.9304 16.0539 23.0221 15.7747 23.1099L15.5832 24.3665C15.5593 24.518 15.5034 24.6417 15.4157 24.7374C15.3279 24.8412 15.2082 24.905 15.0566 24.9289C14.8971 24.9449 14.7575 24.9249 14.6378 24.8691C14.5261 24.8132 14.4304 24.7135 14.3506 24.5699L13.7642 23.445C13.6206 23.453 13.477 23.4609 13.3334 23.4689C13.1898 23.4769 13.0501 23.4809 12.9145 23.4809ZM12.9145 21.7696C14.1591 21.7696 15.3239 21.5382 16.4089 21.0755C17.5019 20.6128 18.4593 19.9705 19.281 19.1488C20.1028 18.3191 20.745 17.3617 21.2078 16.2767C21.6785 15.1837 21.9138 14.0149 21.9138 12.7703C21.9138 11.5257 21.6785 10.3609 21.2078 9.27587C20.745 8.19085 20.1028 7.23746 19.281 6.41572C18.4593 5.58599 17.5019 4.93977 16.4089 4.47704C15.3239 4.00633 14.1591 3.77097 12.9145 3.77097C11.6699 3.77097 10.5011 4.00633 9.40814 4.47704C8.32312 4.93977 7.36574 5.58599 6.53602 6.41572C5.71427 7.23746 5.06805 8.19085 4.59734 9.27587C4.13461 10.3609 3.90324 11.5257 3.90324 12.7703C3.90324 14.0149 4.13461 15.1837 4.59734 16.2767C5.06805 17.3617 5.71427 18.3191 6.53602 19.1488C7.36574 19.9705 8.32312 20.6128 9.40814 21.0755C10.5011 21.5382 11.6699 21.7696 12.9145 21.7696ZM11.0357 11.059L7.18225 4.47704L8.46273 3.77097L12.2563 10.2811L11.0357 11.059ZM15.3678 13.4644V12.0403H22.943V13.4644H15.3678ZM12.2922 15.2834L8.35503 21.7935L7.09848 21.0396L11.0835 14.5055L12.2922 15.2834ZM12.9145 15.6424C12.3959 15.6424 11.9173 15.5147 11.4785 15.2594C11.0397 14.9962 10.6926 14.6491 10.4373 14.2183C10.182 13.7795 10.0544 13.2968 10.0544 12.7703C10.0544 12.2437 10.182 11.765 10.4373 11.3342C10.6926 10.8954 11.0397 10.5484 11.4785 10.2931C11.9173 10.0378 12.3959 9.91013 12.9145 9.91013C13.449 9.91013 13.9317 10.0378 14.3625 10.2931C14.7934 10.5484 15.1364 10.8954 15.3917 11.3342C15.655 11.765 15.7866 12.2437 15.7866 12.7703C15.7866 13.2968 15.655 13.7795 15.3917 14.2183C15.1364 14.6491 14.7934 14.9962 14.3625 15.2594C13.9317 15.5147 13.449 15.6424 12.9145 15.6424ZM12.9145 14.0986C13.2815 14.0986 13.5927 13.971 13.848 13.7157C14.1112 13.4524 14.2429 13.1373 14.2429 12.7703C14.2429 12.4113 14.1112 12.1041 13.848 11.8488C13.5927 11.5855 13.2815 11.4539 12.9145 11.4539C12.5555 11.4539 12.2483 11.5855 11.993 11.8488C11.7377 12.1041 11.6101 12.4113 11.6101 12.7703C11.6101 13.1373 11.7377 13.4524 11.993 13.7157C12.2483 13.971 12.5555 14.0986 12.9145 14.0986Z" fill="white"/>
</svg>
