<svg width="35" height="25" viewBox="0 0 35 25" fill="none" xmlns="http://www.w3.org/2000/svg">
<path d="M11.3176 5.91219C11.137 5.91219 10.9864 5.84695 10.866 5.71647C10.7455 5.58599 10.6853 5.43042 10.6853 5.24976C10.6853 5.06909 10.7455 4.91854 10.866 4.7981C10.9864 4.67765 11.137 4.61743 11.3176 4.61743H23.4071C23.5877 4.61743 23.7383 4.67765 23.8587 4.7981C23.9792 4.91854 24.0394 5.06909 24.0394 5.24976C24.0394 5.43042 23.9792 5.58599 23.8587 5.71647C23.7383 5.84695 23.5877 5.91219 23.4071 5.91219H11.3176ZM9.36043 9.23942C9.16973 9.23942 9.00914 9.17418 8.87866 9.0437C8.74818 8.91322 8.68294 8.75765 8.68294 8.57699C8.68294 8.38628 8.74818 8.22569 8.87866 8.09521C9.00914 7.9547 9.16973 7.88444 9.36043 7.88444H25.3793C25.56 7.88444 25.7105 7.9547 25.831 8.09521C25.9615 8.22569 26.0267 8.38628 26.0267 8.57699C26.0267 8.75765 25.9615 8.91322 25.831 9.0437C25.7105 9.17418 25.56 9.23942 25.3793 9.23942H9.36043ZM4.99438 24.7765C3.53904 24.7765 2.44501 24.4152 1.71232 23.6925C0.989665 22.9699 0.628337 21.8959 0.628337 20.4707V12.1451C0.628337 11.7436 0.64841 11.4024 0.688558 11.1213C0.738742 10.8303 0.819038 10.5693 0.929443 10.3385C1.03985 10.0976 1.19542 9.85167 1.39616 9.60075L6.48486 3.26245C7.00678 2.62009 7.4735 2.11323 7.88501 1.74186C8.29652 1.3705 8.7532 1.10954 9.25505 0.958984C9.75689 0.798394 10.4143 0.718098 11.2273 0.718098H23.5125C24.3254 0.718098 24.9778 0.798394 25.4696 0.958984C25.9715 1.10954 26.4282 1.3705 26.8397 1.74186C27.2512 2.11323 27.7229 2.62009 28.2549 3.26245L33.3436 9.60075C33.5343 9.85167 33.6848 10.0976 33.7952 10.3385C33.9157 10.5693 33.996 10.8303 34.0361 11.1213C34.0763 11.4024 34.0964 11.7436 34.0964 12.1451V20.4707C34.0964 21.8959 33.735 22.9699 33.0124 23.6925C32.2897 24.4152 31.2007 24.7765 29.7454 24.7765H4.99438ZM3.38346 11.3171H12.9587C13.2899 11.3171 13.5408 11.4275 13.7114 11.6483C13.8821 11.859 13.9674 12.0999 13.9674 12.3709V12.4462C13.9674 13.0183 14.1079 13.5754 14.3889 14.1174C14.6699 14.6493 15.0664 15.0859 15.5783 15.4272C16.0902 15.7584 16.6874 15.924 17.3699 15.924C18.0524 15.924 18.6446 15.7584 19.1464 15.4272C19.6583 15.0859 20.0547 14.6493 20.3358 14.1174C20.6168 13.5754 20.7573 13.0183 20.7573 12.4462V12.3709C20.7573 12.0999 20.8426 11.859 21.0133 11.6483C21.1839 11.4275 21.4449 11.3171 21.7961 11.3171H31.3713C31.5821 11.3171 31.7076 11.2418 31.7477 11.0912C31.7979 10.9407 31.7728 10.7951 31.6724 10.6546L26.2224 3.77433C25.8711 3.34275 25.4897 3.0316 25.0782 2.8409C24.6667 2.6502 24.2 2.55485 23.6781 2.55485H11.0617C10.5297 2.55485 10.058 2.6502 9.64648 2.8409C9.23497 3.0316 8.85357 3.34275 8.50228 3.77433L3.0673 10.6546C2.9569 10.7951 2.92679 10.9407 2.97697 11.0912C3.02715 11.2418 3.16265 11.3171 3.38346 11.3171ZM5.0245 22.6989H29.7153C30.4479 22.6989 31.015 22.5032 31.4165 22.1117C31.818 21.7103 32.0187 21.1231 32.0187 20.3503V13.199H22.7446C22.6342 14.0923 22.3331 14.8902 21.8413 15.5928C21.3595 16.2853 20.7322 16.8373 19.9594 17.2489C19.1866 17.6503 18.3234 17.8511 17.3699 17.8511C16.4164 17.8511 15.5532 17.6503 14.7804 17.2489C14.0075 16.8474 13.3752 16.2954 12.8834 15.5928C12.3916 14.8902 12.0905 14.0923 11.9801 13.199H2.72103V20.3503C2.72103 21.1231 2.91675 21.7103 3.30819 22.1117C3.70966 22.5032 4.28177 22.6989 5.0245 22.6989Z" fill="black"/>
</svg>
