<svg width="33" height="30" viewBox="0 0 33 30" fill="none" xmlns="http://www.w3.org/2000/svg">
<path d="M17.9674 6.46688C18.2685 6.46688 18.5244 6.57728 18.7352 6.7981C18.946 7.00887 19.0514 7.26481 19.0514 7.56592V17.1712L17.9071 13.6332L22.4539 19.7909C22.6546 20.0719 22.7449 20.363 22.7249 20.6641C22.7048 20.9551 22.5693 21.186 22.3184 21.3566C22.0474 21.5473 21.7613 21.6226 21.4602 21.5824C21.1591 21.5423 20.8931 21.3666 20.6623 21.0555L17.1995 16.5088C17.0891 16.3582 17.0088 16.2127 16.9587 16.0722C16.9085 15.9317 16.8834 15.7711 16.8834 15.5904V7.56592C16.8834 7.26481 16.9888 7.00887 17.1995 6.7981C17.4103 6.57728 17.6663 6.46688 17.9674 6.46688ZM17.9674 29.1402C16.3414 29.1402 14.7957 28.8843 13.3303 28.3724C11.8649 27.8706 10.52 27.1529 9.29549 26.2195C8.08103 25.2961 7.04221 24.2121 6.17904 22.9675C5.96826 22.6765 5.88797 22.3754 5.93815 22.0642C5.99837 21.743 6.15896 21.5072 6.41992 21.3566C6.69092 21.196 6.96693 21.1509 7.24797 21.2211C7.529 21.2914 7.76487 21.462 7.95557 21.733C8.67822 22.7768 9.55143 23.6902 10.5752 24.4731C11.609 25.2559 12.7532 25.8632 14.0078 26.2948C15.2624 26.7364 16.5823 26.9572 17.9674 26.9572C19.6636 26.9572 21.2494 26.636 22.7249 25.9937C24.2003 25.3613 25.495 24.4881 26.6091 23.374C27.7333 22.2499 28.6115 20.9501 29.2438 19.4747C29.8761 17.9993 30.1923 16.4134 30.1923 14.7172C30.1923 13.031 29.8761 11.4502 29.2438 9.97477C28.6115 8.49935 27.7333 7.19957 26.6091 6.07544C25.495 4.95131 24.2003 4.07308 22.7249 3.44075C21.2494 2.80843 19.6636 2.49227 17.9674 2.49227C16.2711 2.49227 14.6853 2.80843 13.2099 3.44075C11.7345 4.07308 10.4347 4.95131 9.31055 6.07544C8.19645 7.19957 7.32324 8.49935 6.69092 9.97477C6.05859 11.4502 5.74243 13.031 5.74243 14.7172H3.54435C3.54435 12.7299 3.91572 10.863 4.65845 9.11662C5.41121 7.3702 6.44501 5.83957 7.75985 4.52474C9.08472 3.19987 10.6153 2.16607 12.3517 1.42334C14.0981 0.670572 15.97 0.294189 17.9674 0.294189C19.9547 0.294189 21.8165 0.670572 23.5529 1.42334C25.2993 2.16607 26.835 3.19987 28.1598 4.52474C29.4847 5.83957 30.5185 7.3702 31.2612 9.11662C32.014 10.863 32.3904 12.7299 32.3904 14.7172C32.3904 16.7145 32.014 18.5864 31.2612 20.3328C30.5185 22.0692 29.4847 23.5999 28.1598 24.9247C26.835 26.2496 25.2993 27.2834 23.5529 28.0261C21.8165 28.7689 19.9547 29.1402 17.9674 29.1402ZM1.73771 12.0223H8.19645C8.66819 12.0223 8.95926 12.1628 9.06966 12.4438C9.1901 12.7249 9.12486 13.0461 8.87394 13.4074L5.71232 17.8939C5.51158 18.205 5.26568 18.3606 4.97461 18.3606C4.69358 18.3606 4.44265 18.205 4.22184 17.8939L1.07528 13.4224C0.804281 13.0511 0.729004 12.7249 0.849447 12.4438C0.969889 12.1628 1.26598 12.0223 1.73771 12.0223Z" fill="black"/>
</svg>
