<svg width="26" height="24" viewBox="0 0 26 24" fill="none" xmlns="http://www.w3.org/2000/svg">
<path d="M14.2608 5.81517C14.5001 5.81517 14.7036 5.90294 14.8712 6.07848C15.0387 6.24604 15.1225 6.4495 15.1225 6.68887V14.3247L14.2129 11.5122L17.8274 16.4073C17.9869 16.6307 18.0587 16.8621 18.0428 17.1014C18.0268 17.3328 17.9191 17.5163 17.7196 17.652C17.5042 17.8036 17.2768 17.8634 17.0374 17.8315C16.7981 17.7996 16.5866 17.66 16.4031 17.4126L13.6504 13.7981C13.5626 13.6784 13.4988 13.5628 13.4589 13.451C13.419 13.3393 13.399 13.2117 13.399 13.0681V6.68887C13.399 6.4495 13.4828 6.24604 13.6504 6.07848C13.8179 5.90294 14.0214 5.81517 14.2608 5.81517ZM14.2608 23.8397C12.9682 23.8397 11.7394 23.6362 10.5745 23.2293C9.40955 22.8303 8.34036 22.2598 7.36693 21.5178C6.40148 20.7837 5.57565 19.922 4.88946 18.9326C4.7219 18.7012 4.65807 18.4618 4.69797 18.2145C4.74584 17.9592 4.8735 17.7717 5.08096 17.652C5.29639 17.5243 5.51581 17.4884 5.73922 17.5443C5.96263 17.6001 6.15014 17.7358 6.30174 17.9512C6.87622 18.781 7.57039 19.5071 8.38425 20.1294C9.20608 20.7518 10.1157 21.2345 11.1131 21.5776C12.1104 21.9287 13.1597 22.1042 14.2608 22.1042C15.6092 22.1042 16.8699 21.8489 18.0428 21.3383C19.2157 20.8356 20.245 20.1414 21.1307 19.2557C22.0243 18.3621 22.7225 17.3288 23.2251 16.1559C23.7278 14.983 23.9791 13.7223 23.9791 12.3739C23.9791 11.0334 23.7278 9.77673 23.2251 8.60382C22.7225 7.43092 22.0243 6.39764 21.1307 5.504C20.245 4.61035 19.2157 3.91219 18.0428 3.40952C16.8699 2.90684 15.6092 2.6555 14.2608 2.6555C12.9123 2.6555 11.6516 2.90684 10.4787 3.40952C9.30582 3.91219 8.27254 4.61035 7.3789 5.504C6.49323 6.39764 5.79906 7.43092 5.29639 8.60382C4.79371 9.77673 4.54238 11.0334 4.54238 12.3739H2.79498C2.79498 10.7941 3.0902 9.30996 3.68065 7.92162C4.27907 6.53328 5.1009 5.31649 6.14615 4.27124C7.19937 3.21802 8.41616 2.39619 9.79653 1.80574C11.1849 1.20732 12.6729 0.908109 14.2608 0.908109C15.8406 0.908109 17.3207 1.20732 18.7011 1.80574C20.0894 2.39619 21.3102 3.21802 22.3634 4.27124C23.4166 5.31649 24.2385 6.53328 24.8289 7.92162C25.4273 9.30996 25.7265 10.7941 25.7265 12.3739C25.7265 13.9617 25.4273 15.4498 24.8289 16.8381C24.2385 18.2185 23.4166 19.4353 22.3634 20.4885C21.3102 21.5417 20.0894 22.3636 18.7011 22.954C17.3207 23.5444 15.8406 23.8397 14.2608 23.8397ZM1.35877 10.2315H6.49323C6.86824 10.2315 7.09963 10.3432 7.1874 10.5667C7.28315 10.7901 7.23129 11.0454 7.03181 11.3326L4.51844 14.8992C4.35886 15.1466 4.16337 15.2703 3.93198 15.2703C3.70857 15.2703 3.5091 15.1466 3.33356 14.8992L0.832155 11.3446C0.616723 11.0494 0.556881 10.7901 0.652629 10.5667C0.748376 10.3432 0.983756 10.2315 1.35877 10.2315Z" fill="white"/>
</svg>
